<?xml version="1.0" encoding="iso-8859-1"?>
<!-- Generator: Adobe Illustrator 19.0.0, SVG Export Plug-In . SVG Version: 6.00 Build 0)  -->
<svg version="1.1" id="Capa_1" xmlns="http://www.w3.org/2000/svg" xmlns:xlink="http://www.w3.org/1999/xlink" x="0px" y="0px"
	 viewBox="0 0 216 216" style="enable-background:new 0 0 216 216;" xml:space="preserve">
<path d="M161.668,75.201c1.882-5.679,2.832-11.604,2.832-17.701C164.5,26.346,139.154,1,108,1S51.5,26.346,51.5,57.5
	c0,6.097,0.95,12.022,2.832,17.701C24.179,76.345,0,101.232,0,131.66c0,31.154,25.346,56.5,56.5,56.5
	c14.44,0,27.629-5.45,37.628-14.396L81.962,215h51.733l-12.293-41.665c10.054,9.199,23.43,14.825,38.098,14.825
	c31.154,0,56.5-25.346,56.5-56.5C216,101.232,191.821,76.345,161.668,75.201z"/>
<g>
</g>
<g>
</g>
<g>
</g>
<g>
</g>
<g>
</g>
<g>
</g>
<g>
</g>
<g>
</g>
<g>
</g>
<g>
</g>
<g>
</g>
<g>
</g>
<g>
</g>
<g>
</g>
<g>
</g>
</svg>
