<?xml version="1.0" encoding="iso-8859-1"?>
<!-- Generator: Adobe Illustrator 19.0.0, SVG Export Plug-In . SVG Version: 6.00 Build 0)  -->
<svg version="1.1" id="Capa_1" xmlns="http://www.w3.org/2000/svg" xmlns:xlink="http://www.w3.org/1999/xlink" x="0px" y="0px"
	 viewBox="0 0 201.386 201.386" style="enable-background:new 0 0 201.386 201.386;" xml:space="preserve">
<rect x="73.386" y="78.506" style="fill:#FCAD3A;" width="54.613" height="102.4"/>
<path d="M128,184.32H73.386c-1.884,0-3.413-1.529-3.413-3.413v-102.4c0-1.884,1.529-3.413,3.413-3.413H128
	c1.884,0,3.413,1.529,3.413,3.413v102.4C131.413,182.79,129.884,184.32,128,184.32z M76.8,177.493h47.787V81.92H76.8V177.493z"/>
<rect x="63.146" y="180.906" style="fill:#FEDA38;" width="75.093" height="17.067"/>
<path d="M138.24,201.386H63.146c-1.884,0-3.413-1.529-3.413-3.413v-17.067c0-1.884,1.529-3.413,3.413-3.413h75.093
	c1.884,0,3.413,1.529,3.413,3.413v17.067C141.653,199.857,140.124,201.386,138.24,201.386z M66.56,194.56h68.267v-10.24H66.56
	V194.56z"/>
<path style="fill:#FEDA38;" d="M100.693,3.413L100.693,3.413L100.693,3.413c-13.112,13.112-20.48,30.898-20.48,49.444v25.649h40.96
	V52.857C121.173,34.31,113.805,16.525,100.693,3.413z"/>
<path d="M121.173,81.92h-40.96c-1.884,0-3.413-1.529-3.413-3.413V52.857C76.8,33.268,84.429,14.851,98.28,1
	c1.331-1.333,3.495-1.333,4.826,0c13.851,13.851,21.48,32.268,21.48,51.857v25.649C124.586,80.39,123.057,81.92,121.173,81.92z
	 M83.626,75.093h34.133V52.857c0-16.592-6.036-32.258-17.067-44.489c-11.03,12.232-17.067,27.897-17.067,44.489V75.093z"/>
<g>
</g>
<g>
</g>
<g>
</g>
<g>
</g>
<g>
</g>
<g>
</g>
<g>
</g>
<g>
</g>
<g>
</g>
<g>
</g>
<g>
</g>
<g>
</g>
<g>
</g>
<g>
</g>
<g>
</g>
</svg>
